{"title":"Silver Linings Playbook 2012 DVDscr XVID AC3 BHRG","uid":8007489,"size":1444098143,"categoryP":"video","categoryS":"movies","magnet":"?xt=urn:btih:e67d61bd5683076e4979f2669b2c66bfde06477b&amp;dn=Silver+Linings+Playbook+2012+DVDscr+XVID+AC3+BHRG&amp;tr=udp%3A%2F%2Ftracker.openbittorrent.com%3A80&amp;tr=udp%3A%2F%2Fopen.demonii.com%3A1337&amp;tr=udp%3A%2F%2Ftracker.coppersurfer.tk%3A6969&amp;tr=udp%3A%2F%2Fexodus.desync.com%3A6969","seeders":1,"leechers":0,"uploader":"juggs99","files":3,"time":1357924284,"description":" &lt;a href=&quot;http://leetleech.org/images/79458763665750241286.jpg&quot; rel=&quot;nofollow&quot; target=&quot;_NEW&quot;&gt;http://leetleech.org/images/79458763665750241286.jpg&lt;/a&gt;\n\n\n\nFormat                                   : AVI\nFormat/Info                              : Audio Video Interleave\nFile size                                : 1.33 GiB\nDuration                                 : 2h 1mn\nOverall bit rate                         : 1 567 Kbps\nWriting library                          : VirtualDub build 30091/release\n\nVideo\nID                                       : 0\nFormat                                   : MPEG-4 Visual\nFormat profile                           : Advanced Simple@L5\nFormat settings, BVOP                    : 1\nFormat settings, QPel                    : No\nFormat settings, GMC                     : No warppoints\nFormat settings, Matrix                  : Default (H.263)\nMuxing mode                              : Packed bitstream\nCodec ID                                 : XVID\nCodec ID/Hint                            : XviD\nDuration                                 : 2h 1mn\nBit rate                                 : 1 299 Kbps\nWidth                                    : 720 pixels\nHeight                                   : 304 pixels\nDisplay aspect ratio                     : 2.35:1\nFrame rate                               : 29.970 fps\nColor space                              : YUV\nChroma subsampling                       : 4:2:0\nBit depth                                : 8 bits\nScan type                                : Progressive\nCompression mode                         : Lossy\nBits/(Pixel*Frame)                       : 0.198\nStream size                              : 1.11 GiB (83%)\nWriting library                          : XviD 1.2.1 (UTC 2008-12-04)\n\nAudio\nID                                       : 1\nFormat                                   : AC-3\nFormat/Info                              : Audio Coding 3\nMode extension                           : CM (complete main)\nFormat settings, Endianness              : Big\nCodec ID                                 : 2000\nDuration                                 : 2h 1mn\nBit rate mode                            : Constant\nBit rate                                 : 256 Kbps\nChannel(s)                               : 2 channels\nChannel positions                        : Front: L R\nSampling rate                            : 48.0 KHz\nBit depth                                : 16 bits\nCompression mode                         : Lossy\nStream size                              : 223 MiB (16%)\n\n\n &lt;a href=&quot;\nhttp://www.shotpix.com/images/51612035081613751822.png&quot; rel=&quot;nofollow&quot; target=&quot;_NEW&quot;&gt;\nhttp://www.shotpix.com/images/51612035081613751822.png&lt;/a&gt; &lt;a href=&quot;\nhttp://www.shotpix.com/images/23761494242547343090.png&quot; rel=&quot;nofollow&quot; target=&quot;_NEW&quot;&gt;\nhttp://www.shotpix.com/images/23761494242547343090.png&lt;/a&gt; &lt;a href=&quot;\nhttp://www.shotpix.com/images/52069446081091779825.png&quot; rel=&quot;nofollow&quot; target=&quot;_NEW&quot;&gt;\nhttp://www.shotpix.com/images/52069446081091779825.png&lt;/a&gt;","torrent":{"xt":"urn:btih:e67d61bd5683076e4979f2669b2c66bfde06477b","amp;dn":"Silver+Linings+Playbook+2012+DVDscr+XVID+AC3+BHRG","amp;tr":["udp%3A%2F%2Ftracker.openbittorrent.com%3A80","udp%3A%2F%2Fopen.demonii.com%3A1337","udp%3A%2F%2Ftracker.coppersurfer.tk%3A6969","udp%3A%2F%2Fexodus.desync.com%3A6969"],"infoHash":"e67d61bd5683076e4979f2669b2c66bfde06477b","infoHashBuffer":{"type":"Buffer","data":[230,125,97,189,86,131,7,110,73,121,242,102,155,44,102,191,222,6,71,123]},"announce":[],"urlList":[]}}